<svg width="14" height="15" viewBox="0 0 14 15" fill="none" xmlns="http://www.w3.org/2000/svg">
<path fill-rule="evenodd" clip-rule="evenodd" d="M12.0563 10V13.1491H1.94365V10H0V14.0748C0 14.5857 0.434498 15 0.973275 15H13.0267C13.565 15 14 14.5861 14 14.0748V10H12.0563Z" fill="#011E41"/>
<path fill-rule="evenodd" clip-rule="evenodd" d="M6.8308 8.87292L4.17021 5.51897C4.17021 5.51897 3.76539 5.12025 4.20437 5.12025C4.64334 5.12025 5.7036 5.12025 5.7036 5.12025C5.7036 5.12025 5.7036 4.85203 5.7036 4.43838C5.7036 3.25908 5.7036 1.11285 5.7036 0.237882C5.7036 0.237882 5.64406 0 5.98748 0C6.33367 0 7.84999 0 8.09786 0C8.34527 0 8.33974 0.200322 8.33974 0.200322C8.33974 1.0488 8.33974 3.2692 8.33974 4.40997C8.33974 4.7798 8.33974 5.01961 8.33974 5.01961C8.33974 5.01961 9.18998 5.01961 9.72358 5.01961C10.2563 5.01961 9.85513 5.43711 9.85513 5.43711C9.85513 5.43711 7.5915 8.57195 7.27577 8.90085C7.04867 9.13921 6.8308 8.87292 6.8308 8.87292Z" fill="#011E41"/>
</svg>
