<svg width="144" height="33" viewBox="0 0 144 33" fill="none" xmlns="http://www.w3.org/2000/svg">
<path fill-rule="evenodd" clip-rule="evenodd" d="M32.8707 32.9013H0V0.0283203H32.8707V32.9013ZM19.529 2.12004C18.5974 1.93445 17.4795 1.79452 16.4299 1.79452C8.6112 1.79452 2.29397 8.05709 1.7842 15.6917L4.89276 15.696C12.3265 15.696 19.529 9.5675 19.529 2.12004ZM19.5276 30.8098C19.5276 23.3698 12.3276 17.2469 4.89524 17.2469H1.78217C2.07778 24.848 8.60828 31.1302 16.4299 31.1405C17.424 31.1405 18.5974 30.9999 19.5276 30.8098ZM21.0684 2.5396C26.8784 4.44326 31.0766 9.95152 31.0926 16.4591C31.1086 22.8605 26.9944 28.3557 21.0684 30.3853V2.5396Z" fill="#011E41"/>
<path d="M43.8741 19.5505V17.4786H50.7137V14.8366H43.8729V10.9906H51.1496V8.35583H41.0732V14.0191V19.4309C41.0732 22.2301 42.2658 24.1452 45.0646 24.5387C45.1208 24.5526 45.1759 24.5628 45.2268 24.5637H45.2781C45.5644 24.5956 45.8578 24.6172 46.164 24.6172H51.3445V21.9851H46.1874C45.2974 21.9851 43.8741 21.5462 43.8741 19.5505Z" fill="#011E41"/>
<path d="M53.3335 16.0399V24.6214H56.1343V15.9836V8.35168H53.3335V16.0399Z" fill="#011E41"/>
<path fill-rule="evenodd" clip-rule="evenodd" d="M57.9761 18.7212C57.9761 14.9231 60.6255 12.4845 64.1658 12.4845C67.6826 12.4845 70.004 15.1341 70.004 18.4402C70.004 18.4402 70.004 18.9558 69.957 19.4247H60.7663C60.8599 21.3004 62.2432 22.5197 64.3298 22.5197C65.7603 22.5197 66.6275 22.0507 67.5189 21.1598L69.2068 22.8012C67.6826 24.4189 66.0181 24.9113 64.2362 24.9113C60.5319 24.9113 57.9761 22.5197 57.9761 18.8152V18.7212ZM64.1658 14.8763C62.4074 14.8763 60.9537 16.025 60.8365 17.4553H67.1434C67.1434 16.0486 65.8069 14.8763 64.1658 14.8763Z" fill="#011E41"/>
<path d="M77.8738 14.9934C79.1401 14.9934 80.078 15.4623 80.8751 16.2829L82.6102 14.4776C81.2503 13.0239 79.6324 12.4376 77.8738 12.4376C74.3099 12.4376 71.4497 15.087 71.4497 18.6979C71.4497 22.3089 74.3099 24.9583 77.8738 24.9583C79.6324 24.9583 81.2503 24.372 82.6102 22.9185L80.8751 21.1127C80.078 21.9336 79.1401 22.4024 77.8738 22.4024C75.8107 22.4024 74.2397 20.8315 74.2397 18.6979C74.2397 16.5644 75.8107 14.9934 77.8738 14.9934Z" fill="#011E41"/>
<path d="M87.1548 19.5545L87.1514 19.5543V15.4008H89.6992V12.8562H87.1553V8.35193H84.354V14.1875V19.7196L84.3619 19.7192C84.4417 22.3618 85.6433 24.1629 88.3453 24.5426C88.4016 24.5566 88.4565 24.5669 88.5075 24.5678H88.5588C88.8454 24.5996 89.1386 24.6212 89.445 24.6212H89.7412L89.7516 21.9893H89.4681C88.5782 21.9893 87.1548 21.5504 87.1548 19.5545Z" fill="#011E41"/>
<path d="M94.834 14.6064V12.8568H92.0557V18.6222V24.6214H94.834V18.4353C94.834 16.4979 96.0708 15.284 98.0078 15.284C98.4514 15.284 98.8489 15.3303 99.1754 15.401V12.6931C99.0584 12.6701 98.6388 12.6238 98.3356 12.6238C96.6539 12.6238 95.3937 13.3938 94.834 14.6064Z" fill="#011E41"/>
<path fill-rule="evenodd" clip-rule="evenodd" d="M99.604 18.7392C99.604 15.2137 102.452 12.507 106.024 12.507C109.571 12.507 112.443 15.2137 112.443 18.7392C112.443 22.2628 109.571 24.9716 106.024 24.9716C102.452 24.9716 99.604 22.2628 99.604 18.7392ZM102.383 18.7392C102.383 20.8165 103.946 22.4275 106.024 22.4275C108.078 22.4275 109.664 20.8165 109.664 18.7392C109.664 16.6609 108.078 15.0509 106.024 15.0509C103.946 15.0509 102.383 16.6609 102.383 18.7392Z" fill="#011E41"/>
<path d="M114.165 15.7592V24.6213H116.967V15.8717V8.35181H114.165V15.7592Z" fill="#011E41"/>
<path d="M127.069 19.6955C127.069 21.5625 125.972 22.3571 124.501 22.3571C123.03 22.3571 121.934 21.5625 121.934 19.7198V12.8568H119.109V16.2646V19.9531C119.109 23.3145 121.56 24.9251 124.478 24.9251C127.419 24.9251 129.892 23.2914 129.892 19.8827V16.2644V12.8568H127.069V19.6955Z" fill="#011E41"/>
<path d="M140.491 20.8591L138.724 18.3892L140.912 15.4093L142.785 12.8571H139.728L137.183 16.3816L134.615 12.8571H131.581L133.321 15.2372L135.643 18.4121L133.21 21.8008L131.184 24.6214H134.195L137.183 20.466L140.171 24.6214H143.182L140.491 20.8591Z" fill="#011E41"/>
</svg>
