<svg width="480" height="307" viewBox="0 0 480 307" fill="none" xmlns="http://www.w3.org/2000/svg">
<path fill-rule="evenodd" clip-rule="evenodd" d="M59.4625 0H243.538C247.446 0 251 3.19171 250.645 7.44733V262.784C250.645 267.04 247.446 270.232 243.182 270.232H59.4625C55.1982 270.232 52 267.04 52 262.784V7.44733C52 3.19171 55.1982 0 59.4625 0ZM243.538 265.267C244.959 265.267 246.38 263.848 246.38 262.43L246.025 7.09269C246.025 5.67415 244.959 4.25562 243.182 4.25562H59.4625C58.0411 4.25562 56.6196 5.67415 56.6196 7.09269V262.43C56.6196 263.848 57.6857 265.267 59.4625 265.267H243.538Z" fill="#011E41"/>
<path fill-rule="evenodd" clip-rule="evenodd" d="M74.7429 138.012C74.7429 95.8105 109.213 61.4109 151.5 61.4109C193.788 61.4109 228.257 95.8105 228.257 138.012C228.257 180.214 193.788 214.613 151.5 214.613C109.213 214.613 74.7429 180.214 74.7429 138.012ZM78.6518 138.367C78.6518 178.44 111.345 211.067 151.5 211.067C191.655 211.067 224.348 178.44 224.348 138.012C224.348 97.9383 191.655 65.3119 151.5 65.3119C111.345 65.3119 78.6518 97.9383 78.6518 138.367Z" fill="#011E41"/>
<path fill-rule="evenodd" clip-rule="evenodd" d="M93.9321 138.367C93.9321 106.804 119.873 80.9158 151.5 80.9158C183.127 80.9158 209.068 106.449 209.068 138.367C209.068 169.929 183.127 195.817 151.5 195.817C119.873 195.817 93.9321 169.929 93.9321 138.367ZM97.8411 138.012C97.8411 167.447 122.005 191.562 151.5 191.562C180.995 191.562 205.159 167.801 205.159 138.012C205.159 108.577 180.995 84.4621 151.5 84.4621C122.005 84.4621 97.8411 108.577 97.8411 138.012Z" fill="#011E41"/>
<path fill-rule="evenodd" clip-rule="evenodd" d="M165.359 32.6855C165.359 40.4875 158.963 46.5162 151.5 46.5162C144.038 46.5162 137.641 40.1328 137.641 32.6855C137.641 24.8835 144.038 18.8547 151.5 18.8547C159.318 18.8547 165.359 25.2382 165.359 32.6855ZM161.45 32.3309C161.45 27.0113 157.186 22.4011 151.5 22.4011C145.814 22.4011 141.55 27.0113 141.55 32.3309C141.55 37.6504 146.17 42.2606 151.5 42.2606C156.83 42.2606 161.45 38.005 161.45 32.3309Z" fill="#011E41"/>
<path fill-rule="evenodd" clip-rule="evenodd" d="M288.463 0H472.538C476.446 0 480 3.19171 479.645 7.44733V262.784C479.645 267.04 476.446 270.232 472.182 270.232H288.463C284.198 270.232 281 267.04 281 262.784V7.44733C281 3.19171 284.198 0 288.463 0ZM472.538 265.267C473.959 265.267 475.38 263.848 475.38 262.43L475.025 7.09269C475.025 5.67415 473.959 4.25562 472.182 4.25562H288.462C287.041 4.25562 285.62 5.67415 285.62 7.09269V262.43C285.62 263.848 286.686 265.267 288.462 265.267H472.538Z" fill="#011E41"/>
<rect x="362.344" y="31.5305" width="36.3125" height="207.939" rx="8.5" fill="white" stroke="#011E41"/>
<rect x="410.021" y="31.5305" width="36.3125" height="207.939" rx="8.5" fill="white" stroke="#011E41"/>
<rect x="314.667" y="31.5305" width="36.3125" height="207.939" rx="8.5" fill="white" stroke="#011E41"/>
<path d="M53.0365 298.643H249.964" stroke="#011E41" stroke-width="0.3" stroke-linecap="square"/>
<rect x="103.823" y="291.374" width="97.4271" height="14.5385" fill="white"/>
<path fill-rule="evenodd" clip-rule="evenodd" d="M136.004 289.988L130.691 306.529L125.857 294.261L120.863 306.483L115.665 289.988H117.534L121.091 301.229L125.903 289.44L130.509 301.183L134.134 289.988H136.004ZM141.454 289.988V305.912H139.675V289.988H141.454ZM151.715 305.912C154.253 305.912 156.252 305.185 157.712 303.73C159.171 302.276 159.901 300.353 159.901 297.962C159.901 295.57 159.167 293.644 157.7 292.182C156.233 290.719 154.23 289.988 151.692 289.988H146.584V305.912H151.715ZM148.363 304.267H151.578C153.721 304.267 155.348 303.696 156.457 302.554C157.567 301.411 158.122 299.881 158.122 297.962C158.122 296.027 157.567 294.489 156.457 293.347C155.348 292.204 153.714 291.633 151.555 291.633H148.363V304.267ZM168.679 305.912V291.633H173.012V289.988H162.568V291.633H166.901V305.912H168.679ZM178.416 298.281V305.912H176.637V289.988H178.416V296.637H187.24V289.988H189.019V305.912H187.24V298.281H178.416Z" fill="#011E41"/>
<path d="M53.0365 298.643V289.297" stroke="#011E41" stroke-width="0.3" stroke-linecap="square"/>
<path d="M249.963 298.643V289.297" stroke="#011E41" stroke-width="0.3" stroke-linecap="square"/>
<path d="M282.036 298.676H478.964" stroke="#011E41" stroke-width="0.3" stroke-linecap="square"/>
<rect x="332.823" y="291.382" width="97.4271" height="14.5889" fill="white"/>
<path fill-rule="evenodd" clip-rule="evenodd" d="M352.417 305.971C354.956 305.971 356.955 305.241 358.414 303.781C359.873 302.322 360.603 300.392 360.603 297.993C360.603 295.593 359.87 293.66 358.403 292.193C356.936 290.725 354.933 289.992 352.394 289.992H347.287V305.971H352.417ZM352.28 304.32H349.065V291.642H352.257C354.416 291.642 356.05 292.216 357.16 293.362C358.27 294.508 358.824 296.052 358.824 297.993C358.824 299.918 358.27 301.454 357.16 302.601C356.05 303.747 354.424 304.32 352.28 304.32ZM373.714 304.32V305.971H368.766C367.368 305.971 366.319 305.589 365.619 304.825C364.92 304.06 364.571 302.96 364.571 301.523V289.992H373.555V291.642H366.349V296.709H373.121V298.36H366.349V301.615C366.349 302.578 366.615 303.269 367.147 303.69C367.679 304.11 368.272 304.32 368.926 304.32H373.714ZM379.711 305.971V299.712H383.017C384.37 299.712 385.518 299.25 386.461 298.325C387.403 297.4 387.874 296.243 387.874 294.852C387.874 293.461 387.403 292.303 386.461 291.379C385.518 290.454 384.37 289.992 383.017 289.992H377.933V305.971H379.711ZM379.711 298.062H382.949C383.846 298.062 384.595 297.756 385.195 297.144C385.796 296.533 386.096 295.769 386.096 294.852C386.096 293.935 385.796 293.171 385.195 292.559C384.595 291.948 383.846 291.642 382.949 291.642H379.711V298.062ZM396.539 305.971V291.642H400.872V289.992H390.428V291.642H394.761V305.971H396.539ZM406.276 298.314V305.971H404.497V289.992H406.276V296.663H415.1V289.992H416.879V305.971H415.1V298.314H406.276Z" fill="#011E41"/>
<path d="M282.036 298.676V289.298" stroke="#011E41" stroke-width="0.3" stroke-linecap="square"/>
<path d="M478.963 298.676V289.298" stroke="#011E41" stroke-width="0.3" stroke-linecap="square"/>
<path d="M6.28014 2.03077L6.28014 267.969" stroke="#011E41" stroke-width="0.3" stroke-linecap="square"/>
<rect x="15.6262" y="81.4" width="107.2" height="14.5385" transform="rotate(90 15.6262 81.4)" fill="white"/>
<path fill-rule="evenodd" clip-rule="evenodd" d="M3.39529 145.295C1.64375 143.678 0.767979 141.644 0.767979 139.195C0.767979 136.897 1.55236 134.947 3.12113 133.345C4.70513 131.757 6.67752 130.964 9.03829 130.964C11.3991 130.964 13.3676 131.761 14.944 133.356C16.5204 134.951 17.3086 136.897 17.3086 139.195C17.3086 141.342 16.6156 143.164 15.2296 144.66L13.9959 143.549C15.1077 142.355 15.6637 140.904 15.6637 139.195C15.6637 137.336 15.0316 135.794 13.7674 134.569C12.5033 133.345 10.9269 132.732 9.03829 132.732C7.13444 132.732 5.55425 133.345 4.29771 134.569C3.04117 135.794 2.4129 137.336 2.4129 139.195C2.4129 140.873 2.94598 142.317 4.01213 143.527H8.12444V138.696H9.76936V145.295H3.39529ZM8.71844 96.2905H1.08782V94.5217H17.0116V96.2905H10.3634V105.066H17.0116V106.835H1.08782V105.066H8.71844V96.2905ZM2.73275 120.827H1.08782V115.906C1.08782 114.515 1.46859 113.472 2.23013 112.777C2.99167 112.081 4.08829 111.733 5.51998 111.733H17.0116V120.668H15.3667V113.502H10.3177L10.3177 120.237H8.67275V113.502H5.42859C4.46906 113.502 3.77986 113.767 3.36102 114.296C2.94217 114.825 2.73275 115.415 2.73275 116.065V120.827ZM1.08782 126.882H17.0116V125.113H1.08782V126.882ZM1.08782 151.373H8.71844V160.149H1.08782V161.918H17.0116V160.149H10.3634V151.373H17.0116V149.604H1.08782V151.373ZM15.3667 171.601H1.08782V169.832H15.3667L15.3667 165.523H17.0116V175.909H15.3667V171.601Z" fill="#011E41"/>
<path d="M6.28018 2.03077L16.6648 2.03077" stroke="#011E41" stroke-width="0.3" stroke-linecap="square"/>
<path d="M6.28018 267.969H16.6648" stroke="#011E41" stroke-width="0.3" stroke-linecap="square"/>
</svg>
