<svg width="40" height="40" viewBox="0 0 40 40" fill="none" xmlns="http://www.w3.org/2000/svg">
<mask id="mask0" style="mask-type:alpha" maskUnits="userSpaceOnUse" x="0" y="0" width="40" height="40">
<path fill-rule="evenodd" clip-rule="evenodd" d="M0 0H40V40H0V0Z" fill="white"/>
</mask>
<g mask="url(#mask0)">
<path fill-rule="evenodd" clip-rule="evenodd" d="M20.0127 40C31.0343 40 40.0258 31.0496 40.0258 19.9998C40.0258 8.95042 31.0343 0 20.0127 0C8.98978 0 0 8.98398 0 19.9998C0 31.0143 8.98978 40 20.0127 40ZM20.0125 2.82213C29.485 2.82213 37.1998 10.5333 37.1998 19.9997C37.1998 29.466 29.485 37.1759 20.0125 37.1759C10.5401 37.1759 2.82389 29.466 2.82389 19.9997C2.82389 10.5333 10.5401 2.82213 20.0125 2.82213Z" fill="white"/>
</g>
<path fill-rule="evenodd" clip-rule="evenodd" d="M23.1366 13.0661C22.9429 12.8707 22.699 12.7726 22.4313 12.7726C22.1873 12.7726 21.9184 12.8707 21.7247 13.0661L15.2918 19.5155C15.0969 19.71 14.9994 19.9546 14.9994 20.2242C14.9994 20.4926 15.0969 20.7369 15.2918 20.9314L21.7247 27.3808C22.1136 27.772 22.7477 27.772 23.1366 27.3808C23.5271 26.9909 23.5271 26.3551 23.1366 25.964L17.4118 20.2242L23.1366 14.4832C23.5271 14.0921 23.5271 13.4576 23.1366 13.0661Z" fill="white" stroke="white" stroke-width="0.5"/>
</svg>
