<svg width="32" height="32" viewBox="0 0 32 32" fill="none" xmlns="http://www.w3.org/2000/svg">
<mask id="mask0" style="mask-type:alpha" maskUnits="userSpaceOnUse" x="0" y="0" width="32" height="32">
<path d="M0 0.345459H31.9633V31.5639H0V0.345459Z" fill="white"/>
</mask>
<g mask="url(#mask0)">
<path fill-rule="evenodd" clip-rule="evenodd" d="M15.982 1.55391C7.85189 1.55391 1.23741 8.01425 1.23741 15.9549C1.23741 23.8953 7.85189 30.3552 15.982 30.3552C24.1118 30.3552 30.7259 23.8953 30.7259 15.9549C30.7259 8.01425 24.1118 1.55391 15.982 1.55391ZM15.982 31.5638C7.16955 31.5638 0 24.5617 0 15.9549C0 7.34781 7.16955 0.345337 15.982 0.345337C24.7941 0.345337 31.9633 7.34781 31.9633 15.9549C31.9633 24.5617 24.7941 31.5638 15.982 31.5638Z" fill="#011E41"/>
</g>
<mask id="mask1" style="mask-type:alpha" maskUnits="userSpaceOnUse" x="0" y="0" width="31" height="31">
<path d="M0.969727 30.8349H30.8348V0.969849H0.969727V30.8349Z" fill="white"/>
</mask>
<g mask="url(#mask1)">
<path fill-rule="evenodd" clip-rule="evenodd" d="M15.5703 22.6607H16.231V22.0112H15.5703V22.6607Z" fill="#011E41"/>
<path fill-rule="evenodd" clip-rule="evenodd" d="M13.1855 23.0007L13.5674 23.5262L14.1019 23.1377L13.72 22.6122L13.1855 23.0007Z" fill="#011E41"/>
<path fill-rule="evenodd" clip-rule="evenodd" d="M11.8379 25.203L12.4556 25.4035L12.6598 24.7752L12.042 24.5747L11.8379 25.203Z" fill="#011E41"/>
<path fill-rule="evenodd" clip-rule="evenodd" d="M19.1414 24.7752L19.3452 25.4035L19.9629 25.203L19.7591 24.5747L19.1414 24.7752Z" fill="#011E41"/>
<path fill-rule="evenodd" clip-rule="evenodd" d="M17.6995 23.1377L18.2336 23.5262L18.6155 23.0007L18.0813 22.6122L17.6995 23.1377Z" fill="#011E41"/>
<path fill-rule="evenodd" clip-rule="evenodd" d="M16.3261 25.6556L16.3317 25.6516L14.3335 24.0353L15.271 26.4282L15.2763 26.4243C15.2971 26.4758 15.3219 26.5267 15.3565 26.5736C15.5766 26.8742 15.9984 26.9396 16.2987 26.7196C16.5993 26.4996 16.6643 26.0774 16.4443 25.7771C16.41 25.7302 16.3694 25.6909 16.3261 25.6556Z" fill="#011E41"/>
<path fill-rule="evenodd" clip-rule="evenodd" d="M19.2205 16.905L22.2721 15.1568L19.0931 9.60814L20.3551 8.99343L19.8179 7.74951L21.8605 7.0612L22.4374 8.39784L21.048 9.07447L24.2702 14.6978L19.5164 17.4213L19.2205 16.905ZM15.746 18.896L18.1458 17.5208L18.9335 18.896H15.746ZM14.4572 17.5208L15.2453 18.896H12.0574L14.4572 17.5208ZM7.63099 12.6541L6.76998 11.4802L8.41946 10.047C8.8873 10.3138 9.38805 10.3998 9.91676 10.3103C10.2632 10.2515 10.6217 10.1199 10.9915 9.90788C11.6137 9.55152 12.0277 9.11092 12.2411 8.5946C12.3483 8.3352 12.4085 8.05775 12.412 7.75942L14.483 7.0612L14.8468 7.90345L15.0602 8.39784L13.6708 9.07447L13.9543 9.56921L14.122 9.86152L14.2654 10.1121L14.4356 10.4093L14.7495 10.9572L15.5248 12.3104L15.8334 12.8491L16.8926 14.6978L16.6184 14.8549L14.9162 15.8302L14.379 16.1381L13.8414 16.446L12.1392 17.4213L8.91738 11.798L7.63099 12.6541ZM15.8975 9.36785L16.5656 9.04227L16.6661 8.99343L16.1293 7.74951L18.1719 7.0612L18.535 7.9031L18.7488 8.39784L17.3594 9.07447L17.6429 9.56921L17.9539 10.1121L20.5816 14.6978L18.6047 15.8302L18.0675 16.1381L17.53 16.446L15.8278 17.4213L15.5319 16.905L17.2345 15.9297L17.7717 15.6218L18.3089 15.3139L18.5832 15.1568L15.7025 10.1291L15.4042 9.60814L15.8975 9.36785ZM22.7817 9.60814L24.0437 8.99343L22.5457 5.52319L19.3256 6.60857L18.8571 5.52319L15.637 6.60857L15.1685 5.52319L11.051 6.91115L11.1455 7.43703C11.2262 7.88682 11.189 8.36705 10.3758 8.83312C9.56252 9.29884 9.12936 9.08828 8.78184 8.79101L8.37628 8.44349L5.09644 11.2937L7.33266 14.3407L8.50085 13.5632L11.5567 18.896H9.1191L8.15722 17.8477L7.24454 18.6854L8.39008 19.9343C8.50758 20.0617 8.6732 20.1346 8.8466 20.1346H15.3309V20.7787C12.7603 21.0264 10.5895 22.8528 9.94083 25.3934L11.1412 25.6998C11.6993 23.5135 13.6673 21.9861 15.9272 21.9861C18.2346 21.9861 20.2125 23.5528 20.7369 25.7954L21.943 25.5133C21.3361 22.9183 19.1731 21.0508 16.5695 20.784V20.1346H23.0538C23.2272 20.1346 23.3929 20.0617 23.51 19.9343L24.6555 18.6854L23.7432 17.8477L22.7817 18.896H19.4343L25.9607 15.1568L22.7817 9.60814Z" fill="#011E41"/>
</g>
</svg>
