<svg width="32" height="32" viewBox="0 0 32 32" fill="none" xmlns="http://www.w3.org/2000/svg">
<mask id="mask0" style="mask-type:alpha" maskUnits="userSpaceOnUse" x="0" y="0" width="32" height="32">
<path d="M15.92 0.349121H31.8401V31.9088H15.92H0V0.349121H15.92Z" fill="white"/>
</mask>
<g mask="url(#mask0)">
<path fill-rule="evenodd" clip-rule="evenodd" d="M15.9204 30.687C7.82162 30.687 1.23264 24.1564 1.23264 16.1293C1.23264 8.10185 7.82162 1.5709 15.9204 1.5709C24.0188 1.5709 30.6075 8.10185 30.6075 16.1293C30.6075 24.1564 24.0188 30.687 15.9204 30.687ZM15.9204 0.349121C7.14191 0.349121 0 7.42812 0 16.1293C0 24.8301 7.14191 31.9088 15.9204 31.9088C24.6986 31.9088 31.8401 24.8301 31.8401 16.1293C31.8401 7.42812 24.6986 0.349121 15.9204 0.349121Z" fill="#011E41"/>
</g>
<path fill-rule="evenodd" clip-rule="evenodd" d="M15.8401 23.5087H10.6627V12.4093L8.04353 12.5831L7.66317 9.255L12.1232 8.38091C12.7994 9.73883 14.0556 10.4262 15.8659 10.4262H15.8666L15.8401 23.5087ZM18.8348 6.98389L18.6562 7.47993C18.2272 8.67274 17.3669 9.20439 15.8659 9.20439C14.3652 9.20439 13.5048 8.67274 13.0759 7.48028L12.8977 6.98389L7.0708 8.12573L6.31079 8.27444L6.38686 8.94013L6.95106 13.8803L9.43007 13.7156V24.7304H18.5336C17.6313 23.7736 17.1746 22.533 17.1746 21.0148V15.5988H22.302V13.7156L24.781 13.8803L25.3586 8.8211L25.4209 8.27444L24.7933 8.15156L18.8348 6.98389Z" fill="#011E41"/>
<path fill-rule="evenodd" clip-rule="evenodd" d="M23.9322 21.015C23.9322 21.6675 23.9312 23.0502 22.302 24.036C22.0755 24.1728 21.8191 24.3023 21.5254 24.421C19.1186 23.4488 19.1189 21.7582 19.1189 21.015V17.5281H22.302H23.9322V21.015ZM17.8789 16.2969V21.015C17.8789 21.6853 17.8803 23.4164 19.5785 24.7303C20.0712 25.1119 20.7055 25.4581 21.5254 25.7332C25.1719 24.5107 25.1719 21.8797 25.1719 21.015V16.2969H22.302H17.8789Z" fill="#011E41"/>
</svg>
