<svg width="56" height="57" viewBox="0 0 56 57" fill="none" xmlns="http://www.w3.org/2000/svg">
<path fill-rule="evenodd" clip-rule="evenodd" d="M27.9997 56.5C43.42 56.5 56 43.9694 56 28.4997C56 13.0306 43.42 0.5 27.9997 0.5C12.5776 0.5 0 13.0776 0 28.4997C0 43.92 12.5776 56.5 27.9997 56.5ZM28.001 2.83333C42.1461 2.83333 53.6667 14.3558 53.6667 28.501C53.6667 42.6461 42.1461 54.1667 28.001 54.1667C13.8558 54.1667 2.33333 42.6461 2.33333 28.501C2.33333 14.3558 13.8558 2.83333 28.001 2.83333Z" fill="white"/>
<path fill-rule="evenodd" clip-rule="evenodd" d="M22.75 40.1667C22.75 40.1667 38.5 28.9383 38.5 28.4988C38.5 28.0613 22.75 16.8334 22.75 16.8334V40.1667Z" fill="white"/>
</svg>
