<svg width="24" height="24" viewBox="0 0 24 24" fill="none" xmlns="http://www.w3.org/2000/svg">
<path fill-rule="evenodd" clip-rule="evenodd" d="M15 11.7882C16.9412 10.7294 18.2471 8.64706 18.2471 6.28235C18.2824 2.82353 15.4588 0 12 0C8.54118 0 5.71765 2.82353 5.71765 6.28235C5.71765 8.64706 7.02353 10.7294 8.96471 11.7882C3.81176 13.1294 0 17.8235 0 23.4C0 23.7176 0.282353 24 0.6 24H23.4C23.7176 24 24 23.7176 24 23.4C24 17.8235 20.1882 13.1294 15 11.7882ZM6.91765 6.28235C6.91765 3.49412 9.21177 1.2 12 1.2C14.7882 1.2 17.0824 3.49412 17.0824 6.28235C17.0824 9.07059 14.7882 11.3647 12 11.3647C9.21177 11.3647 6.91765 9.07059 6.91765 6.28235ZM11.9999 12.6C6.24703 12.6 1.55294 17.1176 1.23529 22.8H22.7646C22.4469 17.1176 17.7529 12.6 11.9999 12.6Z" fill="#011E41"/>
</svg>
