<svg width="25" height="24" viewBox="0 0 25 24" fill="none" xmlns="http://www.w3.org/2000/svg">
<mask id="mask0" style="mask-type:alpha" maskUnits="userSpaceOnUse" x="0" y="0" width="25" height="25">
<path fill-rule="evenodd" clip-rule="evenodd" d="M0.5 0.000244141H24.5V24.0002H0.5V0.000244141Z" fill="white"/>
</mask>
<g mask="url(#mask0)">
<path fill-rule="evenodd" clip-rule="evenodd" d="M12.5076 24.0002C19.1206 24.0002 24.5155 18.63 24.5155 12.0001C24.5155 5.3705 19.1206 0.000244141 12.5076 0.000244141C5.89387 0.000244141 0.5 5.39063 0.5 12.0001C0.5 18.6088 5.89387 24.0002 12.5076 24.0002ZM12.5075 1.69352C18.191 1.69352 22.8199 6.32024 22.8199 12C22.8199 17.6798 18.191 22.3058 12.5075 22.3058C6.82404 22.3058 2.19434 17.6798 2.19434 12C2.19434 6.32024 6.82404 1.69352 12.5075 1.69352Z" fill="#011E41"/>
</g>
<path fill-rule="evenodd" clip-rule="evenodd" d="M10.7919 16.4287C10.9081 16.5459 11.0545 16.6047 11.2151 16.6047C11.3615 16.6047 11.5229 16.5459 11.6391 16.4287L15.4988 12.559C15.6158 12.4423 15.6742 12.2956 15.6742 12.1338C15.6742 11.9728 15.6158 11.8262 15.4988 11.7095L11.6391 7.83984C11.4057 7.60514 11.0253 7.60514 10.7919 7.83984C10.5576 8.0738 10.5576 8.45525 10.7919 8.68995L14.2268 12.1338L10.7919 15.5784C10.5576 15.8131 10.5576 16.1938 10.7919 16.4287Z" fill="#011E41" stroke="#011E41" stroke-width="0.5"/>
</svg>
