<svg width="24" height="24" viewBox="0 0 24 24" fill="none" xmlns="http://www.w3.org/2000/svg">
<path fill-rule="evenodd" clip-rule="evenodd" d="M0.37793 9.13655C0.37793 4.15423 4.41693 0.115234 9.39925 0.115234C14.3816 0.115234 18.4206 4.15423 18.4206 9.13655C18.4206 14.1187 14.3816 18.1577 9.39925 18.1577C4.41693 18.1577 0.37793 14.1187 0.37793 9.13655ZM17.3993 9.13656C17.3993 4.72521 13.8104 1.13648 9.39925 1.13648C4.9881 1.13648 1.39925 4.72521 1.39925 9.13656C1.39925 13.5478 4.9881 17.1365 9.39925 17.1365C13.8104 17.1365 17.3993 13.5478 17.3993 9.13656Z" fill="#011E41"/>
<path d="M22.3217 22.8795L14.6904 15.2482L15.8783 14.0603L23.5094 21.6916L22.3217 22.8795Z" fill="#011E41"/>
<path d="M14.0187 8.15152C13.8313 7.27372 13.4006 6.47124 12.7729 5.83074C11.9026 4.94244 10.7385 4.43942 9.49512 4.41408L9.52942 2.7345C11.2149 2.76866 12.7928 3.45074 13.9727 4.65488C14.8237 5.52316 15.4077 6.61096 15.6617 7.80082L14.0187 8.15152Z" fill="#011E41"/>
<path d="M15.3958 11.5289L13.8176 10.9529C13.9963 10.4635 14.0922 9.9511 14.1028 9.4303L15.7825 9.46446C15.7681 10.1708 15.6379 10.8653 15.3958 11.5289Z" fill="#011E41"/>
</svg>
