<svg width="14" height="14" viewBox="0 0 14 14" fill="none" xmlns="http://www.w3.org/2000/svg">
<path fill-rule="evenodd" clip-rule="evenodd" d="M13.125 3.88386H10.3565C10.5551 3.74625 10.7257 3.60953 10.8448 3.48701C11.55 2.76698 11.55 1.59504 10.8448 0.875015C10.1596 0.175406 8.96438 0.174519 8.27838 0.875015C7.8995 1.26122 6.89237 2.83356 7.0315 3.88386H6.9685C7.10675 2.83356 6.1005 1.26122 5.72162 0.875015C5.03562 0.174519 3.84037 0.175406 3.15525 0.875015C2.45 1.59504 2.45 2.76698 3.15438 3.48701C3.27425 3.60953 3.44488 3.74625 3.6435 3.88386H0.875C0.392875 3.88386 0 4.2825 0 4.77169V6.99126C0 7.2363 0.196 7.43518 0.4375 7.43518H0.875V12.7621C0.875 13.2513 1.26787 13.65 1.75 13.65H12.25C12.7321 13.65 13.125 13.2513 13.125 12.7621V7.43518H13.5625C13.804 7.43518 14 7.2363 14 6.99126V4.77169C14 4.2825 13.6071 3.88386 13.125 3.88386ZM3.77561 1.50094C3.95323 1.31982 4.18861 1.22038 4.43886 1.22038C4.68823 1.22038 4.92361 1.31982 5.10123 1.50094C5.69098 2.10288 6.27723 3.6406 6.07336 3.85457C6.07336 3.85457 6.03661 3.88387 5.91148 3.88387C5.30686 3.88387 4.15273 3.24641 3.77561 2.86109C3.40898 2.48643 3.40898 1.8756 3.77561 1.50094ZM1.75 12.7622H6.5625V7.43518H1.75V12.7622ZM6.5625 6.54736H0.875V4.77171H5.9115H6.5625V6.54736ZM10.2245 1.50094C9.87009 1.14048 9.25409 1.13959 8.89884 1.50094C8.30909 2.10289 7.72284 3.64061 7.92584 3.85457C7.92672 3.85546 7.96347 3.88387 8.08859 3.88387C8.69322 3.88387 9.84734 3.24641 10.2245 2.86109C10.5911 2.48643 10.5911 1.8756 10.2245 1.50094ZM12.25 12.7622H7.4375V7.43518H12.25V12.7622ZM7.4375 6.54736H13.125V4.77171H8.0885H7.4375V6.54736Z" fill="#011E41"/>
</svg>
