<svg width="24" height="24" viewBox="0 0 24 24" fill="none" xmlns="http://www.w3.org/2000/svg">
<path fill-rule="evenodd" clip-rule="evenodd" d="M3.35172 0H4.34483V3.31034L23.7517 6.57931L23.7103 13.9448L4.38621 16.5517V17.2966L4.55172 17.3379C5.66897 17.6276 6.57931 18.5379 6.86897 19.6966L6.91034 19.8621H13.8207L13.8621 19.6966C14.2345 18.2483 15.5586 17.2138 17.0483 17.2138C18.8276 17.2138 20.3172 18.7034 20.3172 20.4828C20.3172 22.2621 18.869 23.7517 17.0483 23.7517C15.6 23.7517 14.3172 22.8 13.9034 21.4345L13.8621 21.269H6.86897L6.82759 21.4345C6.41379 22.8 5.13103 23.7517 3.68276 23.7517C1.90345 23.7517 0.413793 22.3034 0.413793 20.4828C0.413793 19.0345 1.36552 17.7517 2.77241 17.3379L2.93793 17.2966V1.4069H0V0H3.35172ZM18.9104 20.4828C18.9104 19.4483 18.0828 18.6207 17.0483 18.6207C16.0552 18.6207 15.1862 19.4483 15.1862 20.4828C15.1862 21.5172 16.0138 22.3448 17.0483 22.3448C18.0828 22.3448 18.9104 21.5172 18.9104 20.4828ZM5.54483 20.5241C5.54483 21.5586 4.71724 22.3862 3.68276 22.3862C2.64828 22.3862 1.82069 21.5586 1.82069 20.5241C1.82069 19.4897 2.64828 18.6621 3.68276 18.6621C4.71724 18.6207 5.54483 19.4897 5.54483 20.5241ZM22.2621 12.7034L22.3034 7.73793L4.34483 4.8V15.1448L22.2621 12.7034Z" fill="#011E41"/>
</svg>
