<svg width="89" height="15" viewBox="0 0 89 15" fill="none" xmlns="http://www.w3.org/2000/svg">
<g id="icon/Star-gray">
<g id="Rectangle">
<path id="Mask" fill-rule="evenodd" clip-rule="evenodd" d="M11.7221 14.9955C11.6066 15.0101 11.4896 14.9875 11.3871 14.9303L7.41692 12.7554L3.44675 14.9303C3.33612 14.9922 3.20929 15.0135 3.08652 14.9917C2.77666 14.9365 2.56799 14.6261 2.62015 14.2978L3.34601 9.62865L0.168704 6.30111C0.0823573 6.21042 0.0256919 6.09326 0.00680351 5.96619C-0.041317 5.6374 0.170953 5.32987 0.481263 5.27886L4.90386 4.56365L6.90873 0.331488C6.96359 0.216224 7.05219 0.12269 7.16102 0.0645861C7.44165 -0.0851624 7.78389 0.034353 7.92511 0.331488L9.92953 4.56365L14.3521 5.27886C14.4722 5.2987 14.5828 5.35869 14.6687 5.44986C14.8895 5.68606 14.8882 6.06728 14.6647 6.30111L11.4878 9.62865L12.2132 14.2978C12.2144 14.3035 12.2152 14.3092 12.2159 14.3148L12.2173 14.3242C12.2555 14.654 12.0338 14.9549 11.7221 14.9955ZM30.2638 14.9955C30.1482 15.0101 30.0313 14.9875 29.9288 14.9303L25.9586 12.7554L21.9884 14.9303C21.8778 14.9922 21.751 15.0135 21.6282 14.9917C21.3183 14.9365 21.1097 14.6261 21.1618 14.2978L21.8877 9.62865L18.7104 6.30111C18.624 6.21042 18.5674 6.09326 18.5485 5.96619C18.5003 5.6374 18.7126 5.32987 19.0229 5.27886L23.4455 4.56365L25.4504 0.331488C25.5053 0.216224 25.5939 0.12269 25.7027 0.0645861C25.9833 -0.0851624 26.3256 0.034353 26.4668 0.331488L28.4712 4.56365L32.8938 5.27886C33.0139 5.2987 33.1245 5.35869 33.2104 5.44986C33.4312 5.68606 33.4299 6.06728 33.2063 6.30111L30.0295 9.62865L30.7549 14.2978L30.7554 14.3003L30.7569 14.3097L30.7576 14.3148L30.7589 14.3242C30.7972 14.654 30.5755 14.9549 30.2638 14.9955ZM48.4704 14.9303C48.573 14.9875 48.6899 15.0101 48.8055 14.9955C49.1171 14.9549 49.3388 14.654 49.3006 14.3242L49.2993 14.3148C49.2985 14.3092 49.2977 14.3035 49.2966 14.2978L48.5712 9.62865L51.748 6.30111C51.9715 6.06728 51.9729 5.68606 51.7521 5.44986C51.6662 5.35869 51.5555 5.2987 51.4355 5.27886L47.0129 4.56365L45.0084 0.331488C44.8672 0.034353 44.525 -0.0851624 44.2444 0.0645861C44.1355 0.12269 44.0469 0.216224 43.9921 0.331488L41.9872 4.56365L37.5646 5.27886C37.2543 5.32987 37.042 5.6374 37.0901 5.96619C37.109 6.09326 37.1657 6.21042 37.252 6.30111L40.4293 9.62865L39.7035 14.2978C39.6513 14.6261 39.86 14.9365 40.1698 14.9917C40.2926 15.0135 40.4194 14.9922 40.5301 14.9303L44.5002 12.7554L48.4704 14.9303ZM67.3471 14.9955C67.2316 15.0101 67.1146 14.9875 67.0121 14.9303L63.0419 12.7554L59.0717 14.9303C58.9611 14.9922 58.8343 15.0135 58.7115 14.9917C58.4017 14.9365 58.193 14.6261 58.2452 14.2978L58.971 9.62865L55.7937 6.30111C55.7074 6.21042 55.6507 6.09326 55.6318 5.96619C55.5837 5.6374 55.796 5.32987 56.1063 5.27886L60.5289 4.56365L62.5337 0.331488C62.5886 0.216224 62.6772 0.12269 62.786 0.0645861C63.0667 -0.0851624 63.4089 0.034353 63.5501 0.331488L65.5545 4.56365L69.9771 5.27886C70.0972 5.2987 70.2078 5.35869 70.2937 5.44986C70.5145 5.68606 70.5132 6.06728 70.2897 6.30111L67.1128 9.62865L67.8382 14.2978C67.84 14.3068 67.8409 14.3157 67.8423 14.3242C67.8805 14.654 67.6588 14.9549 67.3471 14.9955ZM85.5537 14.9303C85.6563 14.9875 85.7732 15.0101 85.8888 14.9955C86.2005 14.9549 86.4222 14.654 86.3839 14.3242C86.3826 14.3157 86.3817 14.3068 86.3799 14.2978L85.6545 9.62865L88.8313 6.30111C89.0549 6.06728 89.0562 5.68606 88.8354 5.44986C88.7495 5.35869 88.6389 5.2987 88.5188 5.27886L84.0962 4.56365L82.0918 0.331488C81.9506 0.034353 81.6083 -0.0851624 81.3277 0.0645861C81.2189 0.12269 81.1303 0.216224 81.0754 0.331488L79.0705 4.56365L74.6479 5.27886C74.3376 5.32987 74.1253 5.6374 74.1735 5.96619C74.1924 6.09326 74.249 6.21042 74.3354 6.30111L77.5127 9.62865L76.7868 14.2978C76.7346 14.6261 76.9433 14.9365 77.2532 14.9917C77.376 15.0135 77.5028 14.9922 77.6134 14.9303L81.5836 12.7554L85.5537 14.9303Z" fill="#D1D3D3"/>
<mask id="mask0" style="mask-type:alpha" maskUnits="userSpaceOnUse" x="0" y="0" width="89" height="15">
<path id="Mask_2" fill-rule="evenodd" clip-rule="evenodd" d="M11.7221 14.9955C11.6066 15.0101 11.4896 14.9875 11.3871 14.9303L7.41692 12.7554L3.44675 14.9303C3.33612 14.9922 3.20929 15.0135 3.08652 14.9917C2.77666 14.9365 2.56799 14.6261 2.62015 14.2978L3.34601 9.62865L0.168704 6.30111C0.0823573 6.21042 0.0256919 6.09326 0.00680351 5.96619C-0.041317 5.6374 0.170953 5.32987 0.481263 5.27886L4.90386 4.56365L6.90873 0.331488C6.96359 0.216224 7.05219 0.12269 7.16102 0.0645861C7.44165 -0.0851624 7.78389 0.034353 7.92511 0.331488L9.92953 4.56365L14.3521 5.27886C14.4722 5.2987 14.5828 5.35869 14.6687 5.44986C14.8895 5.68606 14.8882 6.06728 14.6647 6.30111L11.4878 9.62865L12.2132 14.2978C12.2144 14.3035 12.2152 14.3092 12.2159 14.3148L12.2173 14.3242C12.2555 14.654 12.0338 14.9549 11.7221 14.9955ZM30.2638 14.9955C30.1482 15.0101 30.0313 14.9875 29.9288 14.9303L25.9586 12.7554L21.9884 14.9303C21.8778 14.9922 21.751 15.0135 21.6282 14.9917C21.3183 14.9365 21.1097 14.6261 21.1618 14.2978L21.8877 9.62865L18.7104 6.30111C18.624 6.21042 18.5674 6.09326 18.5485 5.96619C18.5003 5.6374 18.7126 5.32987 19.0229 5.27886L23.4455 4.56365L25.4504 0.331488C25.5053 0.216224 25.5939 0.12269 25.7027 0.0645861C25.9833 -0.0851624 26.3256 0.034353 26.4668 0.331488L28.4712 4.56365L32.8938 5.27886C33.0139 5.2987 33.1245 5.35869 33.2104 5.44986C33.4312 5.68606 33.4299 6.06728 33.2063 6.30111L30.0295 9.62865L30.7549 14.2978L30.7554 14.3003L30.7569 14.3097L30.7576 14.3148L30.7589 14.3242C30.7972 14.654 30.5755 14.9549 30.2638 14.9955ZM48.4704 14.9303C48.573 14.9875 48.6899 15.0101 48.8055 14.9955C49.1171 14.9549 49.3388 14.654 49.3006 14.3242L49.2993 14.3148C49.2985 14.3092 49.2977 14.3035 49.2966 14.2978L48.5712 9.62865L51.748 6.30111C51.9715 6.06728 51.9729 5.68606 51.7521 5.44986C51.6662 5.35869 51.5555 5.2987 51.4355 5.27886L47.0129 4.56365L45.0084 0.331488C44.8672 0.034353 44.525 -0.0851624 44.2444 0.0645861C44.1355 0.12269 44.0469 0.216224 43.9921 0.331488L41.9872 4.56365L37.5646 5.27886C37.2543 5.32987 37.042 5.6374 37.0901 5.96619C37.109 6.09326 37.1657 6.21042 37.252 6.30111L40.4293 9.62865L39.7035 14.2978C39.6513 14.6261 39.86 14.9365 40.1698 14.9917C40.2926 15.0135 40.4194 14.9922 40.5301 14.9303L44.5002 12.7554L48.4704 14.9303ZM67.3471 14.9955C67.2316 15.0101 67.1146 14.9875 67.0121 14.9303L63.0419 12.7554L59.0717 14.9303C58.9611 14.9922 58.8343 15.0135 58.7115 14.9917C58.4017 14.9365 58.193 14.6261 58.2452 14.2978L58.971 9.62865L55.7937 6.30111C55.7074 6.21042 55.6507 6.09326 55.6318 5.96619C55.5837 5.6374 55.796 5.32987 56.1063 5.27886L60.5289 4.56365L62.5337 0.331488C62.5886 0.216224 62.6772 0.12269 62.786 0.0645861C63.0667 -0.0851624 63.4089 0.034353 63.5501 0.331488L65.5545 4.56365L69.9771 5.27886C70.0972 5.2987 70.2078 5.35869 70.2937 5.44986C70.5145 5.68606 70.5132 6.06728 70.2897 6.30111L67.1128 9.62865L67.8382 14.2978C67.84 14.3068 67.8409 14.3157 67.8423 14.3242C67.8805 14.654 67.6588 14.9549 67.3471 14.9955ZM85.5537 14.9303C85.6563 14.9875 85.7732 15.0101 85.8888 14.9955C86.2005 14.9549 86.4222 14.654 86.3839 14.3242C86.3826 14.3157 86.3817 14.3068 86.3799 14.2978L85.6545 9.62865L88.8313 6.30111C89.0549 6.06728 89.0562 5.68606 88.8354 5.44986C88.7495 5.35869 88.6389 5.2987 88.5188 5.27886L84.0962 4.56365L82.0918 0.331488C81.9506 0.034353 81.6083 -0.0851624 81.3277 0.0645861C81.2189 0.12269 81.1303 0.216224 81.0754 0.331488L79.0705 4.56365L74.6479 5.27886C74.3376 5.32987 74.1253 5.6374 74.1735 5.96619C74.1924 6.09326 74.249 6.21042 74.3354 6.30111L77.5127 9.62865L76.7868 14.2978C76.7346 14.6261 76.9433 14.9365 77.2532 14.9917C77.376 15.0135 77.5028 14.9922 77.6134 14.9303L81.5836 12.7554L85.5537 14.9303Z" fill="white"/>
</mask>
<g mask="url(#mask0)">
<rect id="Rectangle_2" width="70.2632" height="15" fill="#F8D14F"/>
</g>
</g>
</g>
</svg>
