<svg width="32" height="32" viewBox="0 0 32 32" fill="none" xmlns="http://www.w3.org/2000/svg">
<mask id="mask0" style="mask-type:alpha" maskUnits="userSpaceOnUse" x="0" y="0" width="32" height="32">
<path d="M0 0.345581H31.9633V31.5868H0V0.345581Z" fill="white"/>
</mask>
<g mask="url(#mask0)">
<path fill-rule="evenodd" clip-rule="evenodd" d="M15.982 1.55492C7.85189 1.55492 1.23741 8.01998 1.23741 15.9665C1.23741 23.9126 7.85189 30.3773 15.982 30.3773C24.1118 30.3773 30.7259 23.9126 30.7259 15.9665C30.7259 8.01998 24.1118 1.55492 15.982 1.55492ZM15.982 31.5868C7.16955 31.5868 0 24.5795 0 15.9665C0 7.35305 7.16955 0.345459 15.982 0.345459C24.7941 0.345459 31.9633 7.35305 31.9633 15.9665C31.9633 24.5795 24.7941 31.5868 15.982 31.5868Z" fill="#011E41"/>
</g>
<path fill-rule="evenodd" clip-rule="evenodd" d="M11.9698 25.6885C10.4488 25.6885 8.92858 25.1228 7.77107 23.9914C6.64963 22.8953 6.03198 21.4377 6.03198 19.8876C6.03198 18.3947 6.60473 16.9876 7.64875 15.9064C5.97435 13.6347 6.20487 10.4524 8.2724 8.43124C10.3403 6.41007 13.5961 6.18511 15.9206 7.82168C17.0269 6.80124 18.4662 6.24109 19.9935 6.24109C21.5799 6.24109 23.0708 6.84478 24.1922 7.94124C25.314 9.03701 25.9316 10.4946 25.9316 12.0451C25.9316 13.5949 25.314 15.0525 24.1922 16.1486L23.3175 15.2934C24.2053 14.4257 24.6942 13.2718 24.6942 12.0451C24.6942 10.8177 24.2053 9.66385 23.3175 8.79615C22.4298 7.92845 21.2493 7.45055 19.9935 7.45055C18.7384 7.45055 17.5579 7.92845 16.6698 8.79615L15.9921 9.45859L15.5565 9.08331C13.7082 7.49098 10.8932 7.58048 9.14743 9.2865C7.40197 10.9925 7.3104 13.7442 8.93954 15.5505L9.32384 15.9765L8.6461 16.639C7.75835 17.5067 7.26939 18.6605 7.26939 19.8876C7.26939 21.115 7.75799 22.2688 8.6461 23.1362C10.4785 24.9269 13.4607 24.9272 15.2935 23.1362L16.1685 23.9914C15.011 25.1224 13.49 25.6881 11.9698 25.6885Z" fill="#011E41"/>
<path fill-rule="evenodd" clip-rule="evenodd" d="M19.5171 24.1982L14.0742 18.8783L14.9492 18.0234L20.3921 23.343L19.5171 24.1982Z" fill="#011E41"/>
<path fill-rule="evenodd" clip-rule="evenodd" d="M21.5061 22.2207L16.0632 16.9012L16.9383 16.0463L22.3811 21.3655L21.5061 22.2207Z" fill="#011E41"/>
<path fill-rule="evenodd" clip-rule="evenodd" d="M23.5088 20.2458L18.0659 14.9263L18.9409 14.071L24.3838 19.3906L23.5088 20.2458Z" fill="#011E41"/>
</svg>
