<svg width="32" height="32" viewBox="0 0 32 32" fill="none" xmlns="http://www.w3.org/2000/svg">
<mask id="mask0" style="mask-type:alpha" maskUnits="userSpaceOnUse" x="0" y="0" width="32" height="32">
<path d="M0 0.345093H31.9633V31.5394H0V0.345093Z" fill="white"/>
</mask>
<g mask="url(#mask0)">
<path fill-rule="evenodd" clip-rule="evenodd" d="M15.982 1.55261C7.85189 1.55261 1.23741 8.00797 1.23741 15.9425C1.23741 23.8767 7.85189 30.3317 15.982 30.3317C24.1118 30.3317 30.7259 23.8767 30.7259 15.9425C30.7259 8.00797 24.1118 1.55261 15.982 1.55261ZM15.982 31.5394C7.16955 31.5394 0 24.5426 0 15.9425C0 7.34204 7.16955 0.344971 15.982 0.344971C24.7941 0.344971 31.9633 7.34204 31.9633 15.9425C31.9633 24.5426 24.7941 31.5394 15.982 31.5394Z" fill="#011E41"/>
</g>
<path fill-rule="evenodd" clip-rule="evenodd" d="M24.0335 7.27771H7.93018V17.5351C7.93018 19.4145 7.93018 25.1346 15.9818 27.7921C24.0335 25.1346 24.0335 19.4145 24.0335 17.5351V7.27771ZM22.7961 8.48535V17.5351C22.7961 19.342 22.7961 24.0863 15.9818 26.5123C9.16759 24.0863 9.16758 19.342 9.16758 17.5351V8.48535H22.7961Z" fill="#011E41"/>
<path fill-rule="evenodd" clip-rule="evenodd" d="M13.4778 19.7963H18.4855V13.913L19.9237 14.0072L20.0672 12.773L18.1393 12.4007C17.7932 12.9489 17.1558 13.4472 15.9817 13.4472C14.8075 13.4472 14.1701 12.9489 13.8243 12.4007L11.8964 12.773L12.0396 14.0072L13.4778 13.913V19.7963ZM19.7229 21.0039H12.2404V15.2041L10.9429 15.289L10.5388 11.8038L14.5767 11.0247L14.7559 11.5153C14.8931 11.8914 15.1367 12.2395 15.9817 12.2395C16.8266 12.2395 17.0699 11.8914 17.2074 11.5153L17.3866 11.0247L21.4248 11.8038L21.0204 15.289L19.7229 15.2041V21.0039Z" fill="#011E41"/>
</svg>
