<svg width="32" height="32" viewBox="0 0 32 32" fill="none" xmlns="http://www.w3.org/2000/svg">
<path fill-rule="evenodd" clip-rule="evenodd" d="M0.265381 15.9288C0.265381 7.19952 7.34185 0.123047 16.0711 0.123047C24.8004 0.123047 31.8769 7.19952 31.8769 15.9288C31.8769 24.6581 24.8004 31.7346 16.0711 31.7346C7.34185 31.7346 0.265381 24.6581 0.265381 15.9288ZM16.0711 1.39577C8.04476 1.39577 1.53811 7.90243 1.53811 15.9288C1.53811 23.9552 8.04476 30.4618 16.0711 30.4618C24.0975 30.4618 30.6042 23.9552 30.6042 15.9288C30.6042 7.90243 24.0975 1.39577 16.0711 1.39577Z" fill="#011E41"/>
<g clip-path="url(#clip0)">
<path d="M24.5423 16.0003C24.5423 15.587 24.661 15.4107 24.8407 15.144C25.0603 14.8181 25.3335 14.4125 25.3335 13.6513C25.3335 12.8901 25.0603 12.4845 24.8407 12.1585C24.661 11.8918 24.5423 11.7155 24.5423 11.3021H23.4033C23.4033 12.0633 23.6766 12.4689 23.8961 12.7949C24.0758 13.0616 24.1945 13.2379 24.1945 13.6512C24.1945 14.0646 24.0758 14.2408 23.8961 14.5076C23.6766 14.8335 23.4033 15.2391 23.4033 16.0003C23.4033 16.7615 23.6766 17.167 23.8961 17.4929C24.0758 17.7597 24.1945 17.9359 24.1945 18.3492C24.1945 18.7625 24.0758 18.9387 23.8961 19.2055C23.6766 19.5314 23.4034 19.9369 23.4033 20.6977L24.5423 20.6979C24.5423 20.2848 24.6611 20.1086 24.8407 19.8419C25.0603 19.516 25.3335 19.1104 25.3335 18.3492C25.3335 17.588 25.0603 17.1824 24.8407 16.8566C24.661 16.5899 24.5423 16.4136 24.5423 16.0003Z" fill="#011E41"/>
<path d="M8.59695 11.3022L7.45801 11.302C7.45797 11.7151 7.33926 11.8913 7.15957 12.158C6.94002 12.484 6.66675 12.8895 6.66675 13.6507C6.66675 14.4119 6.94002 14.8175 7.15957 15.1434C7.33929 15.4101 7.45801 15.5864 7.45801 15.9997C7.45801 16.413 7.33929 16.5892 7.15957 16.856C6.94002 17.1819 6.66675 17.5875 6.66675 18.3487C6.66675 19.1099 6.93998 19.5155 7.15957 19.8415C7.33929 20.1082 7.45801 20.2845 7.45801 20.6979H8.59695C8.59695 19.9366 8.32372 19.5311 8.10413 19.2051C7.92441 18.9383 7.80569 18.762 7.80569 18.3487C7.80569 17.9354 7.92441 17.7592 8.10413 17.4924C8.32368 17.1665 8.59695 16.7609 8.59695 15.9997C8.59695 15.2385 8.32368 14.8329 8.10413 14.507C7.92441 14.2402 7.80569 14.064 7.80569 13.6507C7.80569 13.2374 7.92441 13.0612 8.10413 12.7944C8.32368 12.4685 8.59684 12.063 8.59695 11.3022Z" fill="#011E41"/>
<path d="M9.77783 24.5555H22.2223V6.66663H9.77783V24.5555ZM10.9821 23.449V10.3551H21.018V23.449H10.9821ZM21.018 7.77316V9.24853H10.9821V7.77316H21.018Z" fill="#011E41"/>
<path fill-rule="evenodd" clip-rule="evenodd" d="M16 19.8888C17.7182 19.8888 19.1111 18.4959 19.1111 16.7777C19.1111 15.0595 17.7182 13.6666 16 13.6666C14.2818 13.6666 12.8889 15.0595 12.8889 16.7777C12.8889 18.4959 14.2818 19.8888 16 19.8888ZM16 20.6666C18.1477 20.6666 19.8889 18.9255 19.8889 16.7777C19.8889 14.6299 18.1477 12.8888 16 12.8888C13.8522 12.8888 12.1111 14.6299 12.1111 16.7777C12.1111 18.9255 13.8522 20.6666 16 20.6666Z" fill="#011E41"/>
</g>
<defs>
<clipPath id="clip0">
<rect width="18.6667" height="18.6667" fill="white" transform="translate(6.66675 6.66663)"/>
</clipPath>
</defs>
</svg>
