<svg width="32" height="32" viewBox="0 0 32 32" fill="none" xmlns="http://www.w3.org/2000/svg">
<path fill-rule="evenodd" clip-rule="evenodd" d="M0.291016 15.9291C0.291016 7.21351 7.35609 0.148438 16.0717 0.148438C24.7866 0.148438 31.8516 7.21353 31.8516 15.9291C31.8516 24.644 24.7865 31.709 16.0717 31.709C7.35611 31.709 0.291016 24.644 0.291016 15.9291ZM16.0717 1.37026C8.03088 1.37026 1.51283 7.88831 1.51283 15.9291C1.51283 23.9692 8.03087 30.4872 16.0717 30.4872C24.1118 30.4872 30.6298 23.9692 30.6298 15.9291C30.6298 7.88829 24.1117 1.37026 16.0717 1.37026ZM19.7207 5.85154H21.8973V7.07335H21.4197V7.79213H20.1979V7.07335H19.7207V5.85154ZM13.2179 8.26531L13.3949 8.76161C13.6937 9.5992 14.1981 10.1107 15.0428 10.3284L14.7379 11.5116C13.639 11.2283 12.9023 10.5752 12.451 9.66243L8.12783 10.5172L8.49562 13.7651L11.0465 13.5939V24.4951H21.1544V18.2687H22.3762V25.7169H9.82469V14.9005L7.4129 15.0623L6.78718 9.53681L13.2179 8.26531ZM21.4197 9.45974V12.4944H20.1979V9.45974H21.4197Z" fill="#011E41"/>
<path fill-rule="evenodd" clip-rule="evenodd" d="M12.5344 16.119C12.4366 15.5845 12.6709 14.2817 13.2022 14.1843C13.7335 14.0869 14.3577 15.2326 14.4554 15.7671C14.5521 16.2946 14.2058 16.939 13.6745 17.0364C13.1432 17.1338 12.6307 16.6464 12.5344 16.119Z" fill="#011E41"/>
<path fill-rule="evenodd" clip-rule="evenodd" d="M14.519 19.1952C14.2485 17.5401 16.4879 19.7823 15.5345 17.4186C15.3715 17.0304 15.7831 16.8444 16.3399 16.8224C16.8963 17.3638 17.5219 17.8218 18.2054 18.1898C17.96 18.5431 17.6214 18.7902 17.9042 19.1452C18.6955 20.1328 19.5948 20.7919 17.2789 22.2378C16.0641 22.9971 11.8607 23.0645 13.6316 20.7465C14.1158 20.1178 14.7672 20.7123 14.519 19.1952Z" fill="#011E41"/>
<path fill-rule="evenodd" clip-rule="evenodd" d="M15.7844 12.352C15.7844 9.57655 18.0338 7.32715 20.8089 7.32715C23.584 7.32715 25.8337 9.57648 25.8337 12.352C25.8337 15.1271 23.5839 17.3764 20.8089 17.3764C18.0338 17.3764 15.7844 15.1271 15.7844 12.352ZM20.8089 8.54897C18.7086 8.54897 17.0062 10.2513 17.0062 12.352C17.0062 14.4523 18.7086 16.1546 20.8089 16.1546C22.9093 16.1546 24.6119 14.4522 24.6119 12.352C24.6119 10.2513 22.9092 8.54897 20.8089 8.54897Z" fill="#011E41"/>
<path fill-rule="evenodd" clip-rule="evenodd" d="M22.7839 13.1108H24.0159V11.8785H22.7839V13.1108Z" fill="#011E41"/>
<path fill-rule="evenodd" clip-rule="evenodd" d="M20.1931 15.7019H21.4251V14.4696H20.1931V15.7019Z" fill="#011E41"/>
<path fill-rule="evenodd" clip-rule="evenodd" d="M17.6021 13.1108H18.834V11.8785H17.6021V13.1108Z" fill="#011E41"/>
</svg>
